<svg width="512" height="512" viewBox="0 0 512 512" fill="none" xmlns="http://www.w3.org/2000/svg">
  <defs>
    <linearGradient id="panelBg" x1="92" y1="68" x2="432" y2="444" gradientUnits="userSpaceOnUse">
      <stop offset="0" stop-color="#DCC8A7"/>
      <stop offset="0.5" stop-color="#C7DDD3"/>
      <stop offset="1" stop-color="#9FC6B7"/>
    </linearGradient>
    <radialGradient id="warmGlow" cx="0" cy="0" r="1" gradientUnits="userSpaceOnUse" gradientTransform="translate(164 132) rotate(45) scale(150 136)">
      <stop stop-color="#EBD8B8" stop-opacity="0.96"/>
      <stop offset="1" stop-color="#F4E7D1" stop-opacity="0"/>
    </radialGradient>
    <radialGradient id="mintGlow" cx="0" cy="0" r="1" gradientUnits="userSpaceOnUse" gradientTransform="translate(356 366) rotate(135) scale(164 148)">
      <stop stop-color="#C2E0D3" stop-opacity="0.9"/>
      <stop offset="1" stop-color="#D4EBE2" stop-opacity="0"/>
    </radialGradient>
    <linearGradient id="symbolFill" x1="256" y1="142" x2="256" y2="344" gradientUnits="userSpaceOnUse">
      <stop offset="0" stop-color="#F9F7F1"/>
      <stop offset="1" stop-color="#EEF2EC"/>
    </linearGradient>
    <linearGradient id="compassStroke" x1="256" y1="160" x2="256" y2="318" gradientUnits="userSpaceOnUse">
      <stop offset="0" stop-color="#245F51"/>
      <stop offset="1" stop-color="#0E2F2A"/>
    </linearGradient>
  </defs>

  <g>
    <rect x="40" y="40" width="432" height="432" rx="110" fill="url(#panelBg)"/>
    <rect x="40" y="40" width="432" height="432" rx="110" fill="url(#warmGlow)"/>
    <rect x="40" y="40" width="432" height="432" rx="110" fill="url(#mintGlow)"/>
    <rect x="50" y="50" width="412" height="412" rx="100" stroke="#F8FBF7" stroke-opacity="0.48" stroke-width="2"/>

    <g transform="translate(256 216) scale(1.32) translate(-256 -216)">
      <path d="M256 143C215.697 143 183 175.697 183 216C183 251.155 208.003 280.489 241.25 287.116V324.27C241.25 327.974 245.46 330.103 248.451 327.925L256 322.428L263.549 327.925C266.54 330.103 270.75 327.974 270.75 324.27V287.116C303.997 280.489 329 251.155 329 216C329 175.697 296.303 143 256 143Z" fill="url(#symbolFill)" fill-opacity="0.96"/>
      <circle cx="256" cy="216" r="60" fill="#F2F7F3" fill-opacity="0.42" stroke="url(#compassStroke)" stroke-width="16.5"/>
      <path d="M256 180L265.12 206.88L292 216L265.12 225.12L256 252L246.88 225.12L220 216L246.88 206.88L256 180Z" fill="url(#compassStroke)"/>
      <circle cx="256" cy="216" r="13" fill="#E9DCC6"/>
      <path d="M256 160V144" stroke="#6FA894" stroke-width="7" stroke-linecap="round"/>
    </g>
  </g>
</svg>
